<?xml version="1.0" encoding="UTF-8" standalone="no"?>
<!DOCTYPE svg PUBLIC "-//W3C//DTD SVG 1.1//EN"
 "http://www.w3.org/Graphics/SVG/1.1/DTD/svg11.dtd">
<!-- Generated by graphviz version 12.2.1 (20241206.2353)
 -->
<!-- Pages: 1 -->
<svg width="633pt" height="548pt"
 viewBox="0.00 0.00 633.03 548.00" xmlns="http://www.w3.org/2000/svg" xmlns:xlink="http://www.w3.org/1999/xlink">
<g id="graph0" class="graph" transform="scale(1 1) rotate(0) translate(4 544)">
<polygon fill="white" stroke="none" points="-4,4 -4,-544 629.03,-544 629.03,4 -4,4"/>
<!-- build_svg -->
<g id="node1" class="node">
<title>build_svg</title>
<ellipse fill="#b2dfee" stroke="#b2dfee" cx="150" cy="-90" rx="47.26" ry="18"/>
<text text-anchor="middle" x="150" y="-84.95" font-family="Times,serif" font-size="14.00">build_svg</text>
</g>
<!-- build_pdf -->
<g id="node2" class="node">
<title>build_pdf</title>
<ellipse fill="#b2dfee" stroke="#b2dfee" cx="225" cy="-18" rx="46.75" ry="18"/>
<text text-anchor="middle" x="225" y="-12.95" font-family="Times,serif" font-size="14.00">build_pdf</text>
</g>
<!-- build_svg&#45;&gt;build_pdf -->
<g id="edge1" class="edge">
<title>build_svg&#45;&gt;build_pdf</title>
<path fill="none" stroke="black" d="M167.02,-73.12C176.64,-64.14 188.84,-52.74 199.58,-42.73"/>
<polygon fill="black" stroke="black" points="201.76,-45.48 206.68,-36.1 196.98,-40.36 201.76,-45.48"/>
</g>
<!-- process_svg -->
<g id="node3" class="node">
<title>process_svg</title>
<ellipse fill="#b2dfee" stroke="#b2dfee" cx="150" cy="-162" rx="55.96" ry="18"/>
<text text-anchor="middle" x="150" y="-156.95" font-family="Times,serif" font-size="14.00">process_svg</text>
</g>
<!-- process_svg&#45;&gt;build_svg -->
<g id="edge2" class="edge">
<title>process_svg&#45;&gt;build_svg</title>
<path fill="none" stroke="black" d="M150,-143.7C150,-136.41 150,-127.73 150,-119.54"/>
<polygon fill="black" stroke="black" points="153.5,-119.62 150,-109.62 146.5,-119.62 153.5,-119.62"/>
</g>
<!-- optimize_svg -->
<g id="node4" class="node">
<title>optimize_svg</title>
<ellipse fill="#b2dfee" stroke="#b2dfee" cx="123" cy="-234" rx="61.08" ry="18"/>
<text text-anchor="middle" x="123" y="-228.95" font-family="Times,serif" font-size="14.00">optimize_svg</text>
</g>
<!-- optimize_svg&#45;&gt;process_svg -->
<g id="edge3" class="edge">
<title>optimize_svg&#45;&gt;process_svg</title>
<path fill="none" stroke="black" d="M129.67,-215.7C132.58,-208.15 136.07,-199.12 139.32,-190.68"/>
<polygon fill="black" stroke="black" points="142.52,-192.11 142.86,-181.52 135.99,-189.59 142.52,-192.11"/>
</g>
<!-- build_svg_one_line -->
<g id="node5" class="node">
<title>build_svg_one_line</title>
<ellipse fill="#b2dfee" stroke="#b2dfee" cx="112" cy="-306" rx="83.6" ry="18"/>
<text text-anchor="middle" x="112" y="-300.95" font-family="Times,serif" font-size="14.00">build_svg_one_line</text>
</g>
<!-- build_svg_one_line&#45;&gt;optimize_svg -->
<g id="edge4" class="edge">
<title>build_svg_one_line&#45;&gt;optimize_svg</title>
<path fill="none" stroke="black" d="M114.72,-287.7C115.88,-280.32 117.26,-271.52 118.56,-263.25"/>
<polygon fill="black" stroke="black" points="121.98,-264.02 120.08,-253.6 115.07,-262.93 121.98,-264.02"/>
</g>
<!-- json_notes -->
<g id="node6" class="node">
<title>json_notes</title>
<ellipse fill="#b2dfee" stroke="#b2dfee" cx="108" cy="-378" rx="50.33" ry="18"/>
<text text-anchor="middle" x="108" y="-372.95" font-family="Times,serif" font-size="14.00">json_notes</text>
</g>
<!-- json_notes&#45;&gt;build_svg_one_line -->
<g id="edge5" class="edge">
<title>json_notes&#45;&gt;build_svg_one_line</title>
<path fill="none" stroke="black" d="M108.99,-359.7C109.41,-352.41 109.9,-343.73 110.37,-335.54"/>
<polygon fill="black" stroke="black" points="113.86,-335.8 110.94,-325.62 106.87,-335.4 113.86,-335.8"/>
</g>
<!-- all -->
<g id="node7" class="node">
<title>all</title>
<ellipse fill="#b2dfee" stroke="#b2dfee" cx="186" cy="-450" rx="27" ry="18"/>
<text text-anchor="middle" x="186" y="-444.95" font-family="Times,serif" font-size="14.00">all</text>
</g>
<!-- all&#45;&gt;build_svg -->
<g id="edge7" class="edge">
<title>all&#45;&gt;build_svg</title>
<path fill="none" stroke="black" d="M160,-444.51C130.18,-438.21 81.26,-424.2 49,-396 15,-366.28 0,-352.15 0,-307 0,-307 0,-307 0,-233 0,-173.08 63.91,-130.88 108.3,-108.8"/>
<polygon fill="black" stroke="black" points="109.69,-112.01 117.19,-104.53 106.66,-105.7 109.69,-112.01"/>
</g>
<!-- all&#45;&gt;build_pdf -->
<g id="edge6" class="edge">
<title>all&#45;&gt;build_pdf</title>
<path fill="none" stroke="black" d="M200.3,-434.23C222.31,-409.85 262,-358.73 262,-307 262,-307 262,-307 262,-161 262,-120.25 247.55,-74.98 236.71,-46.75"/>
<polygon fill="black" stroke="black" points="239.99,-45.52 233.05,-37.52 233.49,-48.11 239.99,-45.52"/>
</g>
<!-- all&#45;&gt;process_svg -->
<g id="edge8" class="edge">
<title>all&#45;&gt;process_svg</title>
<path fill="none" stroke="black" d="M191.37,-431.92C202.93,-392.01 226.5,-290.35 193,-216 188.5,-206 181.63,-196.31 174.7,-188.01"/>
<polygon fill="black" stroke="black" points="177.51,-185.9 168.26,-180.72 172.26,-190.54 177.51,-185.9"/>
</g>
<!-- all&#45;&gt;build_svg_one_line -->
<g id="edge9" class="edge">
<title>all&#45;&gt;build_svg_one_line</title>
<path fill="none" stroke="black" d="M185.28,-431.55C183.84,-412.81 179.58,-382.65 167,-360 161.05,-349.28 152.22,-339.39 143.37,-331.13"/>
<polygon fill="black" stroke="black" points="145.93,-328.72 136.11,-324.74 141.3,-333.97 145.93,-328.72"/>
</g>
<!-- all&#45;&gt;json_notes -->
<g id="edge10" class="edge">
<title>all&#45;&gt;json_notes</title>
<path fill="none" stroke="black" d="M170.59,-435.17C160.3,-425.94 146.5,-413.55 134.48,-402.76"/>
<polygon fill="black" stroke="black" points="137.02,-400.34 127.24,-396.27 132.35,-405.55 137.02,-400.34"/>
</g>
<!-- default -->
<g id="node8" class="node">
<title>default</title>
<ellipse fill="#b2dfee" stroke="#b2dfee" cx="186" cy="-522" rx="36.51" ry="18"/>
<text text-anchor="middle" x="186" y="-516.95" font-family="Times,serif" font-size="14.00">default</text>
</g>
<!-- default&#45;&gt;all -->
<g id="edge11" class="edge">
<title>default&#45;&gt;all</title>
<path fill="none" stroke="black" d="M186,-503.7C186,-496.41 186,-487.73 186,-479.54"/>
<polygon fill="black" stroke="black" points="189.5,-479.62 186,-469.62 182.5,-479.62 189.5,-479.62"/>
</g>
<!-- debug_origin -->
<g id="node9" class="node">
<title>debug_origin</title>
<ellipse fill="#b2dfee" stroke="#b2dfee" cx="301" cy="-522" rx="60.05" ry="18"/>
<text text-anchor="middle" x="301" y="-516.95" font-family="Times,serif" font-size="14.00">debug_origin</text>
</g>
<!-- debug_deps -->
<g id="node10" class="node">
<title>debug_deps</title>
<ellipse fill="#b2dfee" stroke="#b2dfee" cx="434" cy="-522" rx="54.93" ry="18"/>
<text text-anchor="middle" x="434" y="-516.95" font-family="Times,serif" font-size="14.00">debug_deps</text>
</g>
<!-- debug_status -->
<g id="node11" class="node">
<title>debug_status</title>
<ellipse fill="#b2dfee" stroke="#b2dfee" cx="566" cy="-522" rx="59.03" ry="18"/>
<text text-anchor="middle" x="566" y="-516.95" font-family="Times,serif" font-size="14.00">debug_status</text>
</g>
</g>
</svg>
