<svg xmlns="http://www.w3.org/2000/svg" xmlns:xlink="http://www.w3.org/1999/xlink" version="1.2" width="257.54mm" height="297.00mm" viewBox="0.0000 -0.0000 146.5524 169.0094">
<style type="text/css">
<![CDATA[
tspan { white-space: pre; }
]]>
</style>
<g transform="translate(5.6906, 13.0150)">
<line stroke-linejoin="round" stroke-linecap="round" stroke-width="0.1000" stroke="currentColor" x1="0.0500" y1="0" x2="135.1213" y2="0"/>
</g>
<g transform="translate(5.6906, 12.0150)">
<line stroke-linejoin="round" stroke-linecap="round" stroke-width="0.1000" stroke="currentColor" x1="0.0500" y1="0" x2="135.1213" y2="0"/>
</g>
<g transform="translate(5.6906, 11.0150)">
<line stroke-linejoin="round" stroke-linecap="round" stroke-width="0.1000" stroke="currentColor" x1="0.0500" y1="0" x2="135.1213" y2="0"/>
</g>
<g transform="translate(5.6906, 10.0150)">
<line stroke-linejoin="round" stroke-linecap="round" stroke-width="0.1000" stroke="currentColor" x1="0.0500" y1="0" x2="135.1213" y2="0"/>
</g>
<g transform="translate(5.6906, 9.0150)">
<line stroke-linejoin="round" stroke-linecap="round" stroke-width="0.1000" stroke="currentColor" x1="0.0500" y1="0" x2="135.1213" y2="0"/>
</g>
<g transform="translate(42.8476, 11.0150)">
<rect x="0.0000" y="-2.0000" width="0.1900" height="4.0000" ry="0.0000" fill="currentColor"/>
</g>
<g transform="translate(105.0294, 11.0150)">
<rect x="0.0000" y="-2.0000" width="0.1900" height="4.0000" ry="0.0000" fill="currentColor"/>
</g>
<g transform="translate(140.6718, 11.0150)">
<rect x="0.0000" y="-2.0000" width="0.1900" height="4.0000" ry="0.0000" fill="currentColor"/>
</g>
<g transform="translate(70.4637, 11.0150)">
<rect x="0.0000" y="-2.0000" width="0.1900" height="4.0000" ry="0.0000" fill="currentColor"/>
</g>
<g transform="translate(5.6906, 8.0150)">
<rect x="33.3411" y="-0.1000" width="1.9563" height="0.2000" ry="0.1000" fill="currentColor"/>
</g>
<g transform="translate(5.6906, 8.0150)">
<rect x="25.9327" y="-0.1000" width="1.9563" height="0.2000" ry="0.1000" fill="currentColor"/>
</g>
<g transform="translate(5.6906, 6.0150)">
<rect x="22.4785" y="-0.1000" width="1.9563" height="0.2000" ry="0.1000" fill="currentColor"/>
</g>
<g transform="translate(5.6906, 7.0150)">
<rect x="22.4785" y="-0.1000" width="1.9563" height="0.2000" ry="0.1000" fill="currentColor"/>
</g>
<g transform="translate(5.6906, 8.0150)">
<rect x="22.4785" y="-0.1000" width="1.9563" height="0.2000" ry="0.1000" fill="currentColor"/>
</g>
<g transform="translate(5.6906, 7.0150)">
<rect x="19.0768" y="-0.1000" width="1.9563" height="0.2000" ry="0.1000" fill="currentColor"/>
</g>
<g transform="translate(5.6906, 8.0150)">
<rect x="19.0768" y="-0.1000" width="1.9563" height="0.2000" ry="0.1000" fill="currentColor"/>
</g>
<g transform="translate(5.6906, 6.0150)">
<rect x="16.5287" y="-0.1000" width="1.9563" height="0.2000" ry="0.1000" fill="currentColor"/>
</g>
<g transform="translate(5.6906, 7.0150)">
<rect x="16.5287" y="-0.1000" width="1.9563" height="0.2000" ry="0.1000" fill="currentColor"/>
</g>
<g transform="translate(5.6906, 8.0150)">
<rect x="16.5287" y="-0.1000" width="1.9563" height="0.2000" ry="0.1000" fill="currentColor"/>
</g>
<a style="color:inherit;" xlink:href="textedit:///work/_1/m001_008.ly:6:175:176">
<g transform="translate(102.3481, 7.2750)">
<path transform="scale(0.0022, -0.0022)" d="M194 486c16 0 29 15 41 15c13 0 24 -13 24 -31v-341c0 -47 35 -86 81 -86c14 0 21 -10 21 -21s-7 -22 -21 -22c-49 0 -97 14 -146 14s-96 -14 -145 -14c-14 0 -22 11 -22 22s8 21 22 21c46 0 80 39 80 86v137c0 23 -16 35 -30 35c-7 0 -13 -4 -17 -11l-34 -65
c-5 -10 -14 -15 -23 -15c-14 0 -28 12 -28 27c0 4 1 8 3 13l129 250c2 4 7 6 11 6c18 0 37 -20 54 -20z" fill="currentColor"/>
</g>
</a>
<a style="color:inherit;" xlink:href="textedit:///work/_1/m001_008.ly:6:155:156">
<g transform="translate(98.9015, 11.3845)">
<text font-family="serif" font-style="italic" font-size="1.3862" text-anchor="start" fill="currentColor">
<tspan>m</tspan>
</text>
</g>
</a>
<a style="color:inherit;" xlink:href="textedit:///work/_1/m001_008.ly:7:10:11">
<g transform="translate(106.3105, 6.4650)">
<path transform="scale(0.0022, -0.0022)" d="M148 501c10 0 41 -15 72 -15c32 0 63 15 76 15c15 0 26 -11 26 -21c0 -4 -1 -7 -4 -10l-264 -291h134v4c0 60 50 41 75 85c7 11 8 24 14 36c3 7 10 10 17 10c11 0 24 -8 24 -25v-110h70c18 0 27 -14 27 -27s-9 -27 -27 -27h-70c2 -45 36 -82 80 -82c14 0 22 -10 22 -21
s-8 -22 -22 -22c-49 0 -96 14 -145 14s-97 -14 -146 -14c-14 0 -21 11 -21 22s7 21 21 21c44 0 79 37 81 82h-134c-43 0 -57 25 -57 42c0 5 1 10 3 12c73 81 123 182 123 291c0 17 11 31 25 31z" fill="currentColor"/>
</g>
</a>
<a style="color:inherit;" xlink:href="textedit:///work/_1/m001_008.ly:7:4:5">
<g transform="translate(106.1194, 13.0150)">
<path transform="scale(0.0040, -0.0040)" d="M218 136c66 0 108 -36 108 -89c0 -89 -113 -183 -218 -183c-66 0 -108 36 -108 89c0 89 113 183 218 183z" fill="currentColor"/>
</g>
</a>
<a style="color:inherit;" xlink:href="textedit:///work/_1/m001_008.ly:6:179:180">
<g transform="translate(103.9099, 11.3751)">
<text font-family="serif" font-style="italic" font-size="1.3862" text-anchor="start" fill="currentColor">
<tspan>a</tspan>
</text>
</g>
</a>
<g transform="translate(112.6609, 11.0150)">
<rect x="-0.0650" y="-3.8100" width="0.1300" height="2.6239" ry="0.0400" fill="currentColor"/>
</g>
<g transform="translate(103.3449, 11.0150)">
<rect x="-0.0650" y="-3.0000" width="0.1300" height="2.8139" ry="0.0400" fill="currentColor"/>
</g>
<a style="color:inherit;" xlink:href="textedit:///work/_1/m001_008.ly:6:170:171">
<g transform="translate(102.1057, 11.0150)">
<path transform="scale(0.0040, -0.0040)" d="M218 136c66 0 108 -36 108 -89c0 -89 -113 -183 -218 -183c-66 0 -108 36 -108 89c0 89 113 183 218 183z" fill="currentColor"/>
</g>
</a>
<a style="color:inherit;" xlink:href="textedit:///work/_1/m001_008.ly:6:167:168">
<g transform="translate(101.1557, 13.0250)">
<text font-family="serif" font-style="italic" font-size="1.3862" text-anchor="start" fill="currentColor">
<tspan>i</tspan>
</text>
</g>
</a>
<g transform="translate(100.5907, 11.0150)">
<rect x="-0.0650" y="-3.0000" width="0.1300" height="4.3139" ry="0.0400" fill="currentColor"/>
</g>
<a style="color:inherit;" xlink:href="textedit:///work/_1/m001_008.ly:6:163:164">
<g transform="translate(99.5939, 7.2750)">
<path transform="scale(0.0022, -0.0022)" d="M194 486c16 0 29 15 41 15c13 0 24 -13 24 -31v-341c0 -47 35 -86 81 -86c14 0 21 -10 21 -21s-7 -22 -21 -22c-49 0 -97 14 -146 14s-96 -14 -145 -14c-14 0 -22 11 -22 22s8 21 22 21c46 0 80 39 80 86v137c0 23 -16 35 -30 35c-7 0 -13 -4 -17 -11l-34 -65
c-5 -10 -14 -15 -23 -15c-14 0 -28 12 -28 27c0 4 1 8 3 13l129 250c2 4 7 6 11 6c18 0 37 -20 54 -20z" fill="currentColor"/>
</g>
</a>
<a style="color:inherit;" xlink:href="textedit:///work/_1/m001_008.ly:6:158:159">
<g transform="translate(99.3515, 12.5150)">
<path transform="scale(0.0040, -0.0040)" d="M218 136c66 0 108 -36 108 -89c0 -89 -113 -183 -218 -183c-66 0 -108 36 -108 89c0 89 113 183 218 183z" fill="currentColor"/>
</g>
</a>
<a style="color:inherit;" xlink:href="textedit:///work/_1/m001_008.ly:7:33:34">
<g transform="translate(111.6640, 6.4650)">
<path transform="scale(0.0022, -0.0022)" d="M194 486c16 0 29 15 41 15c13 0 24 -13 24 -31v-341c0 -47 35 -86 81 -86c14 0 21 -10 21 -21s-7 -22 -21 -22c-49 0 -97 14 -146 14s-96 -14 -145 -14c-14 0 -22 11 -22 22s8 21 22 21c46 0 80 39 80 86v137c0 23 -16 35 -30 35c-7 0 -13 -4 -17 -11l-34 -65
c-5 -10 -14 -15 -23 -15c-14 0 -28 12 -28 27c0 4 1 8 3 13l129 250c2 4 7 6 11 6c18 0 37 -20 54 -20z" fill="currentColor"/>
</g>
</a>
<a style="color:inherit;" xlink:href="textedit:///work/_1/m001_008.ly:7:28:29">
<g transform="translate(111.4216, 10.0150)">
<path transform="scale(0.0040, -0.0040)" d="M218 136c66 0 108 -36 108 -89c0 -89 -113 -183 -218 -183c-66 0 -108 36 -108 89c0 89 113 183 218 183z" fill="currentColor"/>
</g>
</a>
<a style="color:inherit;" xlink:href="textedit:///work/_1/m001_008.ly:7:25:26">
<g transform="translate(110.6778, 10.0250)">
<text font-family="serif" font-style="italic" font-size="1.3862" text-anchor="start" fill="currentColor">
<tspan>i</tspan>
</text>
</g>
</a>
<g transform="translate(110.1128, 11.0150)">
<rect x="-0.0650" y="-3.8100" width="0.1300" height="2.1239" ry="0.0400" fill="currentColor"/>
</g>
<a style="color:inherit;" xlink:href="textedit:///work/_1/m001_008.ly:7:21:22">
<g transform="translate(109.0989, 6.4650)">
<path transform="scale(0.0022, -0.0022)" d="M94 66c-60 0 -39 -66 -72 -66c-11 0 -22 7 -22 21c0 154 232 162 232 334c0 50 -17 102 -61 102c-33 0 -66 -14 -66 -44c0 -24 31 -37 31 -61c0 -34 -27 -61 -61 -61s-61 27 -61 61c0 84 72 148 157 148c98 0 190 -55 190 -145c0 -140 -131 -154 -225 -205
c85 -2 113 -61 165 -61c45 0 28 41 57 41c11 0 22 -8 22 -21c0 -29 -48 -109 -144 -109c-92 0 -96 66 -142 66z" fill="currentColor"/>
</g>
</a>
<a style="color:inherit;" xlink:href="textedit:///work/_1/m001_008.ly:7:17:18">
<g transform="translate(108.8736, 9.5150)">
<path transform="scale(0.0040, -0.0040)" d="M218 136c66 0 108 -36 108 -89c0 -89 -113 -183 -218 -183c-66 0 -108 36 -108 89c0 89 113 183 218 183z" fill="currentColor"/>
</g>
</a>
<a style="color:inherit;" xlink:href="textedit:///work/_1/m001_008.ly:7:14:15">
<g transform="translate(107.9236, 13.2404)">
<text font-family="serif" font-style="italic" font-size="1.3862" text-anchor="start" fill="currentColor">
<tspan>p</tspan>
</text>
</g>
</a>
<g transform="translate(107.3586, 11.0150)">
<rect x="-0.0650" y="-3.8100" width="0.1300" height="5.6239" ry="0.0400" fill="currentColor"/>
</g>
<a style="color:inherit;" xlink:href="textedit:///work/_1/m001_008.ly:6:80:81">
<g transform="translate(85.4743, 7.2750)">
<path transform="scale(0.0022, -0.0022)" d="M194 486c16 0 29 15 41 15c13 0 24 -13 24 -31v-341c0 -47 35 -86 81 -86c14 0 21 -10 21 -21s-7 -22 -21 -22c-49 0 -97 14 -146 14s-96 -14 -145 -14c-14 0 -22 11 -22 22s8 21 22 21c46 0 80 39 80 86v137c0 23 -16 35 -30 35c-7 0 -13 -4 -17 -11l-34 -65
c-5 -10 -14 -15 -23 -15c-14 0 -28 12 -28 27c0 4 1 8 3 13l129 250c2 4 7 6 11 6c18 0 37 -20 54 -20z" fill="currentColor"/>
</g>
</a>
<g transform="translate(89.8728, 11.0150)">
<rect x="-0.0650" y="-3.0000" width="0.1300" height="3.3139" ry="0.0400" fill="currentColor"/>
</g>
<a style="color:inherit;" xlink:href="textedit:///work/_1/m001_008.ly:6:91:92">
<g transform="translate(88.8248, 7.2750)">
<path transform="scale(0.0022, -0.0022)" d="M148 501c10 0 41 -15 72 -15c32 0 63 15 76 15c15 0 26 -11 26 -21c0 -4 -1 -7 -4 -10l-264 -291h134v4c0 60 50 41 75 85c7 11 8 24 14 36c3 7 10 10 17 10c11 0 24 -8 24 -25v-110h70c18 0 27 -14 27 -27s-9 -27 -27 -27h-70c2 -45 36 -82 80 -82c14 0 22 -10 22 -21
s-8 -22 -22 -22c-49 0 -96 14 -145 14s-97 -14 -146 -14c-14 0 -21 11 -21 22s7 21 21 21c44 0 79 37 81 82h-134c-43 0 -57 25 -57 42c0 5 1 10 3 12c73 81 123 182 123 291c0 17 11 31 25 31z" fill="currentColor"/>
</g>
</a>
<a style="color:inherit;" xlink:href="textedit:///work/_1/m001_008.ly:6:87:88">
<g transform="translate(88.6336, 11.5150)">
<path transform="scale(0.0040, -0.0040)" d="M218 136c66 0 108 -36 108 -89c0 -89 -113 -183 -218 -183c-66 0 -108 36 -108 89c0 89 113 183 218 183z" fill="currentColor"/>
</g>
</a>
<a style="color:inherit;" xlink:href="textedit:///work/_1/m001_008.ly:6:84:85">
<g transform="translate(87.0362, 11.3845)">
<text font-family="serif" font-style="italic" font-size="1.3862" text-anchor="start" fill="currentColor">
<tspan>m</tspan>
</text>
</g>
</a>
<g transform="translate(86.4712, 11.0150)">
<rect x="-0.0650" y="-3.0000" width="0.1300" height="2.8139" ry="0.0400" fill="currentColor"/>
</g>
<a style="color:inherit;" xlink:href="textedit:///work/_1/m001_008.ly:6:95:96">
<g transform="translate(90.4378, 12.0250)">
<text font-family="serif" font-style="italic" font-size="1.3862" text-anchor="start" fill="currentColor">
<tspan>i</tspan>
</text>
</g>
</a>
<a style="color:inherit;" xlink:href="textedit:///work/_1/m001_008.ly:6:76:77">
<g transform="translate(85.2320, 11.0150)">
<path transform="scale(0.0040, -0.0040)" d="M218 136c66 0 108 -36 108 -89c0 -89 -113 -183 -218 -183c-66 0 -108 36 -108 89c0 89 113 183 218 183z" fill="currentColor"/>
</g>
</a>
<a style="color:inherit;" xlink:href="textedit:///work/_1/m001_008.ly:6:73:74">
<g transform="translate(84.0442, 12.2404)">
<text font-family="serif" font-style="italic" font-size="1.3862" text-anchor="start" fill="currentColor">
<tspan>p</tspan>
</text>
</g>
</a>
<g transform="translate(83.4792, 11.0150)">
<rect x="-0.0650" y="-3.0000" width="0.1300" height="3.8139" ry="0.0400" fill="currentColor"/>
</g>
<a style="color:inherit;" xlink:href="textedit:///work/_1/m001_008.ly:6:69:70">
<g transform="translate(82.4995, 7.2750)">
<path transform="scale(0.0022, -0.0022)" d="M261 266c0 -54 85 -40 85 -125c0 -94 -83 -141 -186 -141c-84 0 -160 54 -160 133c0 32 26 58 58 58s58 -26 58 -58c0 -22 -36 -26 -36 -48c0 -33 42 -42 80 -42c41 0 56 50 56 98v21c0 44 -2 77 -43 77h-65c-18 0 -27 14 -27 27s9 27 27 27h65c42 0 43 36 43 83v11
c0 43 -20 70 -61 70c-34 0 -71 -8 -71 -38c0 -19 32 -23 32 -42c0 -28 -23 -51 -51 -51s-51 23 -51 51c0 72 66 123 141 123c93 0 174 -31 174 -113c0 -94 -68 -67 -68 -121z" fill="currentColor"/>
</g>
</a>
<a style="color:inherit;" xlink:href="textedit:///work/_1/m001_008.ly:6:63:64">
<g transform="translate(82.2400, 12.0150)">
<path transform="scale(0.0040, -0.0040)" d="M218 136c66 0 108 -36 108 -89c0 -89 -113 -183 -218 -183c-66 0 -108 36 -108 89c0 89 113 183 218 183z" fill="currentColor"/>
</g>
</a>
<g transform="translate(129.7537, 8.0150)">
<polygon stroke-linejoin="round" stroke-linecap="round" stroke-width="0.0800" fill="currentColor" stroke="currentColor" points="9.4414 0.8000 9.4414 1.2000 0.0400 0.2000 0.0400 -0.2000"/>
</g>
<g transform="translate(129.7537, 8.8250)">
<polygon stroke-linejoin="round" stroke-linecap="round" stroke-width="0.0800" fill="currentColor" stroke="currentColor" points="9.4414 0.8000 9.4414 1.2000 0.0400 0.2000 0.0400 -0.2000"/>
</g>
<a style="color:inherit;" xlink:href="textedit:///work/_1/m001_008.ly:6:122:123">
<g transform="translate(94.1053, 12.0150)">
<path transform="scale(0.0040, -0.0040)" d="M218 136c66 0 108 -36 108 -89c0 -89 -113 -183 -218 -183c-66 0 -108 36 -108 89c0 89 113 183 218 183z" fill="currentColor"/>
</g>
</a>
<g transform="translate(98.3365, 11.0150)">
<rect x="-0.0650" y="-3.0000" width="0.1300" height="2.8139" ry="0.0400" fill="currentColor"/>
</g>
<a style="color:inherit;" xlink:href="textedit:///work/_1/m001_008.ly:6:151:152">
<g transform="translate(97.3397, 7.2750)">
<path transform="scale(0.0022, -0.0022)" d="M194 486c16 0 29 15 41 15c13 0 24 -13 24 -31v-341c0 -47 35 -86 81 -86c14 0 21 -10 21 -21s-7 -22 -21 -22c-49 0 -97 14 -146 14s-96 -14 -145 -14c-14 0 -22 11 -22 22s8 21 22 21c46 0 80 39 80 86v137c0 23 -16 35 -30 35c-7 0 -13 -4 -17 -11l-34 -65
c-5 -10 -14 -15 -23 -15c-14 0 -28 12 -28 27c0 4 1 8 3 13l129 250c2 4 7 6 11 6c18 0 37 -20 54 -20z" fill="currentColor"/>
</g>
</a>
<a style="color:inherit;" xlink:href="textedit:///work/_1/m001_008.ly:6:145:146">
<g transform="translate(97.0973, 11.0150)">
<path transform="scale(0.0040, -0.0040)" d="M218 136c66 0 108 -36 108 -89c0 -89 -113 -183 -218 -183c-66 0 -108 36 -108 89c0 89 113 183 218 183z" fill="currentColor"/>
</g>
</a>
<a style="color:inherit;" xlink:href="textedit:///work/_1/m001_008.ly:6:131:132">
<g transform="translate(95.9096, 12.2404)">
<text font-family="serif" font-style="italic" font-size="1.3862" text-anchor="start" fill="currentColor">
<tspan>p</tspan>
</text>
</g>
</a>
<g transform="translate(95.3446, 11.0150)">
<rect x="-0.0650" y="-3.0000" width="0.1300" height="3.8139" ry="0.0400" fill="currentColor"/>
</g>
<a style="color:inherit;" xlink:href="textedit:///work/_1/m001_008.ly:6:127:128">
<g transform="translate(94.3648, 7.2750)">
<path transform="scale(0.0022, -0.0022)" d="M261 266c0 -54 85 -40 85 -125c0 -94 -83 -141 -186 -141c-84 0 -160 54 -160 133c0 32 26 58 58 58s58 -26 58 -58c0 -22 -36 -26 -36 -48c0 -33 42 -42 80 -42c41 0 56 50 56 98v21c0 44 -2 77 -43 77h-65c-18 0 -27 14 -27 27s9 27 27 27h65c42 0 43 36 43 83v11
c0 43 -20 70 -61 70c-34 0 -71 -8 -71 -38c0 -19 32 -23 32 -42c0 -28 -23 -51 -51 -51s-51 23 -51 51c0 72 66 123 141 123c93 0 174 -31 174 -113c0 -94 -68 -67 -68 -121z" fill="currentColor"/>
</g>
</a>
<a style="color:inherit;" xlink:href="textedit:///work/_1/m001_008.ly:6:119:120">
<g transform="translate(92.9859, 11.3751)">
<text font-family="serif" font-style="italic" font-size="1.3862" text-anchor="start" fill="currentColor">
<tspan>a</tspan>
</text>
</g>
</a>
<g transform="translate(92.4209, 11.0150)">
<rect x="-0.0650" y="-3.0000" width="0.1300" height="2.8139" ry="0.0400" fill="currentColor"/>
</g>
<a style="color:inherit;" xlink:href="textedit:///work/_1/m001_008.ly:6:115:116">
<g transform="translate(91.4241, 7.2750)">
<path transform="scale(0.0022, -0.0022)" d="M194 486c16 0 29 15 41 15c13 0 24 -13 24 -31v-341c0 -47 35 -86 81 -86c14 0 21 -10 21 -21s-7 -22 -21 -22c-49 0 -97 14 -146 14s-96 -14 -145 -14c-14 0 -22 11 -22 22s8 21 22 21c46 0 80 39 80 86v137c0 23 -16 35 -30 35c-7 0 -13 -4 -17 -11l-34 -65
c-5 -10 -14 -15 -23 -15c-14 0 -28 12 -28 27c0 4 1 8 3 13l129 250c2 4 7 6 11 6c18 0 37 -20 54 -20z" fill="currentColor"/>
</g>
</a>
<a style="color:inherit;" xlink:href="textedit:///work/_1/m001_008.ly:6:110:111">
<g transform="translate(91.1817, 11.0150)">
<path transform="scale(0.0040, -0.0040)" d="M218 136c66 0 108 -36 108 -89c0 -89 -113 -183 -218 -183c-66 0 -108 36 -108 89c0 89 113 183 218 183z" fill="currentColor"/>
</g>
</a>
<a style="color:inherit;" xlink:href="textedit:///work/_1/m001_008.ly:7:170:171">
<g transform="translate(137.9309, 12.5150)">
<path transform="scale(0.0040, -0.0040)" d="M218 136c66 0 108 -36 108 -89c0 -89 -113 -183 -218 -183c-66 0 -108 36 -108 89c0 89 113 183 218 183z" fill="currentColor"/>
</g>
</a>
<a style="color:inherit;" xlink:href="textedit:///work/_1/m001_008.ly:7:167:168">
<g transform="translate(136.3335, 12.3845)">
<text font-family="serif" font-style="italic" font-size="1.3862" text-anchor="start" fill="currentColor">
<tspan>m</tspan>
</text>
</g>
</a>
<g transform="translate(135.7685, 11.0150)">
<rect x="-0.0650" y="-2.3656" width="0.1300" height="3.1795" ry="0.0400" fill="currentColor"/>
</g>
<a style="color:inherit;" xlink:href="textedit:///work/_1/m001_008.ly:7:163:164">
<g transform="translate(134.7887, 7.9094)">
<path transform="scale(0.0022, -0.0022)" d="M261 266c0 -54 85 -40 85 -125c0 -94 -83 -141 -186 -141c-84 0 -160 54 -160 133c0 32 26 58 58 58s58 -26 58 -58c0 -22 -36 -26 -36 -48c0 -33 42 -42 80 -42c41 0 56 50 56 98v21c0 44 -2 77 -43 77h-65c-18 0 -27 14 -27 27s9 27 27 27h65c42 0 43 36 43 83v11
c0 43 -20 70 -61 70c-34 0 -71 -8 -71 -38c0 -19 32 -23 32 -42c0 -28 -23 -51 -51 -51s-51 23 -51 51c0 72 66 123 141 123c93 0 174 -31 174 -113c0 -94 -68 -67 -68 -121z" fill="currentColor"/>
</g>
</a>
<a style="color:inherit;" xlink:href="textedit:///work/_1/m001_008.ly:7:158:159">
<g transform="translate(134.5293, 12.0150)">
<path transform="scale(0.0040, -0.0040)" d="M218 136c66 0 108 -36 108 -89c0 -89 -113 -183 -218 -183c-66 0 -108 36 -108 89c0 89 113 183 218 183z" fill="currentColor"/>
</g>
</a>
<a style="color:inherit;" xlink:href="textedit:///work/_1/m001_008.ly:7:175:176">
<g transform="translate(138.1733, 8.2682)">
<path transform="scale(0.0022, -0.0022)" d="M194 486c16 0 29 15 41 15c13 0 24 -13 24 -31v-341c0 -47 35 -86 81 -86c14 0 21 -10 21 -21s-7 -22 -21 -22c-49 0 -97 14 -146 14s-96 -14 -145 -14c-14 0 -22 11 -22 22s8 21 22 21c46 0 80 39 80 86v137c0 23 -16 35 -30 35c-7 0 -13 -4 -17 -11l-34 -65
c-5 -10 -14 -15 -23 -15c-14 0 -28 12 -28 27c0 4 1 8 3 13l129 250c2 4 7 6 11 6c18 0 37 -20 54 -20z" fill="currentColor"/>
</g>
</a>
<a style="color:inherit;" xlink:href="textedit:///work/_1/m001_008.ly:7:155:156">
<g transform="translate(133.7854, 12.0250)">
<text font-family="serif" font-style="italic" font-size="1.3862" text-anchor="start" fill="currentColor">
<tspan>i</tspan>
</text>
</g>
</a>
<g transform="translate(133.2204, 11.0150)">
<rect x="-0.0650" y="-2.6344" width="0.1300" height="2.9483" ry="0.0400" fill="currentColor"/>
</g>
<a style="color:inherit;" xlink:href="textedit:///work/_1/m001_008.ly:7:151:152">
<g transform="translate(132.1724, 7.6407)">
<path transform="scale(0.0022, -0.0022)" d="M148 501c10 0 41 -15 72 -15c32 0 63 15 76 15c15 0 26 -11 26 -21c0 -4 -1 -7 -4 -10l-264 -291h134v4c0 60 50 41 75 85c7 11 8 24 14 36c3 7 10 10 17 10c11 0 24 -8 24 -25v-110h70c18 0 27 -14 27 -27s-9 -27 -27 -27h-70c2 -45 36 -82 80 -82c14 0 22 -10 22 -21
s-8 -22 -22 -22c-49 0 -96 14 -145 14s-97 -14 -146 -14c-14 0 -21 11 -21 22s7 21 21 21c44 0 79 37 81 82h-134c-43 0 -57 25 -57 42c0 5 1 10 3 12c73 81 123 182 123 291c0 17 11 31 25 31z" fill="currentColor"/>
</g>
</a>
<a style="color:inherit;" xlink:href="textedit:///work/_1/m001_008.ly:7:145:146">
<g transform="translate(131.9812, 11.5150)">
<path transform="scale(0.0040, -0.0040)" d="M218 136c66 0 108 -36 108 -89c0 -89 -113 -183 -218 -183c-66 0 -108 36 -108 89c0 89 113 183 218 183z" fill="currentColor"/>
</g>
</a>
<a style="color:inherit;" xlink:href="textedit:///work/_1/m001_008.ly:7:131:132">
<g transform="translate(130.3837, 11.3845)">
<text font-family="serif" font-style="italic" font-size="1.3862" text-anchor="start" fill="currentColor">
<tspan>m</tspan>
</text>
</g>
</a>
<g transform="translate(117.3275, 13.2050)">
<polygon stroke-linejoin="round" stroke-linecap="round" stroke-width="0.0800" fill="currentColor" stroke="currentColor" points="8.7939 -0.3900 8.7939 0.0100 0.0400 0.2000 0.0400 -0.2000"/>
</g>
<g transform="translate(117.3275, 14.0150)">
<polygon stroke-linejoin="round" stroke-linecap="round" stroke-width="0.0800" fill="currentColor" stroke="currentColor" points="8.7939 -0.3900 8.7939 0.0100 0.0400 0.2000 0.0400 -0.2000"/>
</g>
<g transform="translate(107.2936, 7.2050)">
<polygon stroke-linejoin="round" stroke-linecap="round" stroke-width="0.0800" fill="currentColor" stroke="currentColor" points="8.7939 -0.2000 8.7939 0.2000 0.0400 0.2000 0.0400 -0.2000"/>
</g>
<g transform="translate(107.2936, 8.0150)">
<polygon stroke-linejoin="round" stroke-linecap="round" stroke-width="0.0800" fill="currentColor" stroke="currentColor" points="8.7939 -0.2000 8.7939 0.2000 0.0400 0.2000 0.0400 -0.2000"/>
</g>
<a style="color:inherit;" xlink:href="textedit:///work/_1/m001_008.ly:7:51:52">
<g transform="translate(111.4216, 11.0150)">
<path stroke-width="0.0800" stroke-linejoin="round" stroke-linecap="round" stroke="currentColor" fill="currentColor" d="M0.6076 0.1426C1.3845 0.8473 3.0660 1.0203 4.0093 0.4926L4.0093 0.4926C3.0782 0.9010 1.3968 0.7280 0.6076 0.1426z"/>
</g>
</a>
<g transform="translate(95.2796, 8.0150)">
<polygon stroke-linejoin="round" stroke-linecap="round" stroke-width="0.0800" fill="currentColor" stroke="currentColor" points="8.0904 -0.2000 8.0904 0.2000 0.0400 0.2000 0.0400 -0.2000"/>
</g>
<g transform="translate(95.2796, 8.8250)">
<polygon stroke-linejoin="round" stroke-linecap="round" stroke-width="0.0800" fill="currentColor" stroke="currentColor" points="8.0904 -0.2000 8.0904 0.2000 0.0400 0.2000 0.0400 -0.2000"/>
</g>
<g transform="translate(83.4142, 8.0150)">
<polygon stroke-linejoin="round" stroke-linecap="round" stroke-width="0.0800" fill="currentColor" stroke="currentColor" points="9.0317 -0.2000 9.0317 0.2000 0.0400 0.2000 0.0400 -0.2000"/>
</g>
<g transform="translate(83.4142, 8.8250)">
<polygon stroke-linejoin="round" stroke-linecap="round" stroke-width="0.0800" fill="currentColor" stroke="currentColor" points="9.0317 -0.2000 9.0317 0.2000 0.0400 0.2000 0.0400 -0.2000"/>
</g>
<g transform="translate(72.7279, 8.0150)">
<polygon stroke-linejoin="round" stroke-linecap="round" stroke-width="0.0800" fill="currentColor" stroke="currentColor" points="7.8526 -0.2000 7.8526 0.2000 0.0400 0.2000 0.0400 -0.2000"/>
</g>
<g transform="translate(72.7279, 8.8250)">
<polygon stroke-linejoin="round" stroke-linecap="round" stroke-width="0.0800" fill="currentColor" stroke="currentColor" points="7.8526 -0.2000 7.8526 0.2000 0.0400 0.2000 0.0400 -0.2000"/>
</g>
<g transform="translate(56.0265, 13.8250)">
<polygon stroke-linejoin="round" stroke-linecap="round" stroke-width="0.0800" fill="currentColor" stroke="currentColor" points="10.9526 0.4900 10.9526 0.8900 0.0400 0.2000 0.0400 -0.2000"/>
</g>
<a style="color:inherit;" xlink:href="textedit:///work/_1/m001_008.ly:5:98:99">
<g transform="translate(5.6906, 11.0150)">
<line stroke-linejoin="round" stroke-linecap="round" stroke-width="0.1000" stroke="currentColor" x1="55.5477" y1="0.2109" x2="56.7910" y2="0.7891"/>
</g>
</a>
<g transform="translate(44.1270, 12.0150)">
<polygon stroke-linejoin="round" stroke-linecap="round" stroke-width="0.0800" fill="currentColor" stroke="currentColor" points="8.5878 -0.0100 8.5878 0.3900 0.0400 0.2000 0.0400 -0.2000"/>
</g>
<g transform="translate(44.1270, 12.8250)">
<polygon stroke-linejoin="round" stroke-linecap="round" stroke-width="0.0800" fill="currentColor" stroke="currentColor" points="8.5878 -0.0100 8.5878 0.3900 0.0400 0.2000 0.0400 -0.2000"/>
</g>
<g transform="translate(28.4951, 11.0150)">
<polygon stroke-linejoin="round" stroke-linecap="round" stroke-width="0.0800" fill="currentColor" stroke="currentColor" points="10.9526 -0.2000 10.9526 0.2000 0.0400 0.2000 0.0400 -0.2000"/>
</g>
<a style="color:inherit;" xlink:href="textedit:///work/_1/m001_008.ly:4:98:99">
<g transform="translate(5.6906, 11.0150)">
<line stroke-linejoin="round" stroke-linecap="round" stroke-width="0.1000" stroke="currentColor" x1="28.0163" y1="-3.2891" x2="29.2596" y2="-2.7109"/>
</g>
</a>
<g transform="translate(22.5453, 10.0150)">
<polygon stroke-linejoin="round" stroke-linecap="round" stroke-width="0.0800" fill="currentColor" stroke="currentColor" points="2.6381 -0.0100 2.6381 0.3900 0.0400 0.2000 0.0400 -0.2000"/>
</g>
<g transform="translate(22.5453, 10.8250)">
<polygon stroke-linejoin="round" stroke-linecap="round" stroke-width="0.0800" fill="currentColor" stroke="currentColor" points="2.6381 -0.0100 2.6381 0.3900 0.0400 0.2000 0.0400 -0.2000"/>
</g>
<g transform="translate(129.8187, 11.0150)">
<rect x="-0.0650" y="-2.9931" width="0.1300" height="2.8070" ry="0.0400" fill="currentColor"/>
</g>
<a style="color:inherit;" xlink:href="textedit:///work/_1/m001_008.ly:7:179:180">
<g transform="translate(139.7351, 13.0250)">
<text font-family="serif" font-style="italic" font-size="1.3862" text-anchor="start" fill="currentColor">
<tspan>i</tspan>
</text>
</g>
</a>
<g transform="translate(139.1701, 11.0150)">
<rect x="-0.0650" y="-2.0069" width="0.1300" height="3.3207" ry="0.0400" fill="currentColor"/>
</g>
<g transform="translate(120.1467, 11.0150)">
<rect x="-0.0650" y="-1.3139" width="0.1300" height="4.2533" ry="0.0400" fill="currentColor"/>
</g>
<a style="color:inherit;" xlink:href="textedit:///work/_1/m001_008.ly:7:80:81">
<g transform="translate(120.3070, 8.4650)">
<path transform="scale(0.0022, -0.0022)" d="M94 66c-60 0 -39 -66 -72 -66c-11 0 -22 7 -22 21c0 154 232 162 232 334c0 50 -17 102 -61 102c-33 0 -66 -14 -66 -44c0 -24 31 -37 31 -61c0 -34 -27 -61 -61 -61s-61 27 -61 61c0 84 72 148 157 148c98 0 190 -55 190 -145c0 -140 -131 -154 -225 -205
c85 -2 113 -61 165 -61c45 0 28 41 57 41c11 0 22 -8 22 -21c0 -29 -48 -109 -144 -109c-92 0 -96 66 -142 66z" fill="currentColor"/>
</g>
</a>
<a style="color:inherit;" xlink:href="textedit:///work/_1/m001_008.ly:7:76:77">
<g transform="translate(120.0817, 9.5150)">
<path transform="scale(0.0040, -0.0040)" d="M218 136c66 0 108 -36 108 -89c0 -89 -113 -183 -218 -183c-66 0 -108 36 -108 89c0 89 113 183 218 183z" fill="currentColor"/>
</g>
</a>
<a style="color:inherit;" xlink:href="textedit:///work/_1/m001_008.ly:7:73:74">
<g transform="translate(119.1317, 11.5250)">
<text font-family="serif" font-style="italic" font-size="1.3862" text-anchor="start" fill="currentColor">
<tspan>i</tspan>
</text>
</g>
</a>
<g transform="translate(117.3925, 11.0150)">
<rect x="-0.0650" y="0.1861" width="0.1300" height="2.8125" ry="0.0400" fill="currentColor"/>
</g>
<a style="color:inherit;" xlink:href="textedit:///work/_1/m001_008.ly:7:69:70">
<g transform="translate(117.5699, 8.4650)">
<path transform="scale(0.0022, -0.0022)" d="M194 486c16 0 29 15 41 15c13 0 24 -13 24 -31v-341c0 -47 35 -86 81 -86c14 0 21 -10 21 -21s-7 -22 -21 -22c-49 0 -97 14 -146 14s-96 -14 -145 -14c-14 0 -22 11 -22 22s8 21 22 21c46 0 80 39 80 86v137c0 23 -16 35 -30 35c-7 0 -13 -4 -17 -11l-34 -65
c-5 -10 -14 -15 -23 -15c-14 0 -28 12 -28 27c0 4 1 8 3 13l129 250c2 4 7 6 11 6c18 0 37 -20 54 -20z" fill="currentColor"/>
</g>
</a>
<a style="color:inherit;" xlink:href="textedit:///work/_1/m001_008.ly:7:63:64">
<g transform="translate(117.3275, 11.0150)">
<path transform="scale(0.0040, -0.0040)" d="M218 136c66 0 108 -36 108 -89c0 -89 -113 -183 -218 -183c-66 0 -108 36 -108 89c0 89 113 183 218 183z" fill="currentColor"/>
</g>
</a>
<g transform="translate(116.0625, 11.0150)">
<rect x="-0.0650" y="-3.8100" width="0.1300" height="3.1239" ry="0.0400" fill="currentColor"/>
</g>
<a style="color:inherit;" xlink:href="textedit:///work/_1/m001_008.ly:7:57:58">
<g transform="translate(115.0828, 6.4650)">
<path transform="scale(0.0022, -0.0022)" d="M261 266c0 -54 85 -40 85 -125c0 -94 -83 -141 -186 -141c-84 0 -160 54 -160 133c0 32 26 58 58 58s58 -26 58 -58c0 -22 -36 -26 -36 -48c0 -33 42 -42 80 -42c41 0 56 50 56 98v21c0 44 -2 77 -43 77h-65c-18 0 -27 14 -27 27s9 27 27 27h65c42 0 43 36 43 83v11
c0 43 -20 70 -61 70c-34 0 -71 -8 -71 -38c0 -19 32 -23 32 -42c0 -28 -23 -51 -51 -51s-51 23 -51 51c0 72 66 123 141 123c93 0 174 -31 174 -113c0 -94 -68 -67 -68 -121z" fill="currentColor"/>
</g>
</a>
<a style="color:inherit;" xlink:href="textedit:///work/_1/m001_008.ly:7:52:53">
<g transform="translate(114.8233, 10.5150)">
<path transform="scale(0.0040, -0.0040)" d="M218 136c66 0 108 -36 108 -89c0 -89 -113 -183 -218 -183c-66 0 -108 36 -108 89c0 89 113 183 218 183z" fill="currentColor"/>
</g>
</a>
<a style="color:inherit;" xlink:href="textedit:///work/_1/m001_008.ly:7:37:38">
<g transform="translate(113.2259, 10.3845)">
<text font-family="serif" font-style="italic" font-size="1.3862" text-anchor="start" fill="currentColor">
<tspan>m</tspan>
</text>
</g>
</a>
<a style="color:inherit;" xlink:href="textedit:///work/_1/m001_008.ly:7:127:128">
<g transform="translate(128.8219, 7.2819)">
<path transform="scale(0.0022, -0.0022)" d="M194 486c16 0 29 15 41 15c13 0 24 -13 24 -31v-341c0 -47 35 -86 81 -86c14 0 21 -10 21 -21s-7 -22 -21 -22c-49 0 -97 14 -146 14s-96 -14 -145 -14c-14 0 -22 11 -22 22s8 21 22 21c46 0 80 39 80 86v137c0 23 -16 35 -30 35c-7 0 -13 -4 -17 -11l-34 -65
c-5 -10 -14 -15 -23 -15c-14 0 -28 12 -28 27c0 4 1 8 3 13l129 250c2 4 7 6 11 6c18 0 37 -20 54 -20z" fill="currentColor"/>
</g>
</a>
<a style="color:inherit;" xlink:href="textedit:///work/_1/m001_008.ly:7:122:123">
<g transform="translate(128.5795, 11.0150)">
<path transform="scale(0.0040, -0.0040)" d="M218 136c66 0 108 -36 108 -89c0 -89 -113 -183 -218 -183c-66 0 -108 36 -108 89c0 89 113 183 218 183z" fill="currentColor"/>
</g>
</a>
<a style="color:inherit;" xlink:href="textedit:///work/_1/m001_008.ly:7:119:120">
<g transform="translate(127.8357, 11.0250)">
<text font-family="serif" font-style="italic" font-size="1.3862" text-anchor="start" fill="currentColor">
<tspan>i</tspan>
</text>
</g>
</a>
<g transform="translate(126.0965, 11.0150)">
<rect x="-0.0650" y="-0.3139" width="0.1300" height="3.1253" ry="0.0400" fill="currentColor"/>
</g>
<a style="color:inherit;" xlink:href="textedit:///work/_1/m001_008.ly:7:115:116">
<g transform="translate(126.2909, 8.4650)">
<path transform="scale(0.0022, -0.0022)" d="M261 266c0 -54 85 -40 85 -125c0 -94 -83 -141 -186 -141c-84 0 -160 54 -160 133c0 32 26 58 58 58s58 -26 58 -58c0 -22 -36 -26 -36 -48c0 -33 42 -42 80 -42c41 0 56 50 56 98v21c0 44 -2 77 -43 77h-65c-18 0 -27 14 -27 27s9 27 27 27h65c42 0 43 36 43 83v11
c0 43 -20 70 -61 70c-34 0 -71 -8 -71 -38c0 -19 32 -23 32 -42c0 -28 -23 -51 -51 -51s-51 23 -51 51c0 72 66 123 141 123c93 0 174 -31 174 -113c0 -94 -68 -67 -68 -121z" fill="currentColor"/>
</g>
</a>
<a style="color:inherit;" xlink:href="textedit:///work/_1/m001_008.ly:7:110:111">
<g transform="translate(126.0315, 10.5150)">
<path transform="scale(0.0040, -0.0040)" d="M218 136c66 0 108 -36 108 -89c0 -89 -113 -183 -218 -183c-66 0 -108 36 -108 89c0 89 113 183 218 183z" fill="currentColor"/>
</g>
</a>
<a style="color:inherit;" xlink:href="textedit:///work/_1/m001_008.ly:7:95:96">
<g transform="translate(125.2876, 10.5250)">
<text font-family="serif" font-style="italic" font-size="1.3862" text-anchor="start" fill="currentColor">
<tspan>i</tspan>
</text>
</g>
</a>
<g transform="translate(123.5484, 11.0150)">
<rect x="-0.0650" y="-0.8139" width="0.1300" height="3.6801" ry="0.0400" fill="currentColor"/>
</g>
<a style="color:inherit;" xlink:href="textedit:///work/_1/m001_008.ly:7:91:92">
<g transform="translate(123.7258, 8.4650)">
<path transform="scale(0.0022, -0.0022)" d="M194 486c16 0 29 15 41 15c13 0 24 -13 24 -31v-341c0 -47 35 -86 81 -86c14 0 21 -10 21 -21s-7 -22 -21 -22c-49 0 -97 14 -146 14s-96 -14 -145 -14c-14 0 -22 11 -22 22s8 21 22 21c46 0 80 39 80 86v137c0 23 -16 35 -30 35c-7 0 -13 -4 -17 -11l-34 -65
c-5 -10 -14 -15 -23 -15c-14 0 -28 12 -28 27c0 4 1 8 3 13l129 250c2 4 7 6 11 6c18 0 37 -20 54 -20z" fill="currentColor"/>
</g>
</a>
<a style="color:inherit;" xlink:href="textedit:///work/_1/m001_008.ly:7:87:88">
<g transform="translate(123.4834, 10.0150)">
<path transform="scale(0.0040, -0.0040)" d="M218 136c66 0 108 -36 108 -89c0 -89 -113 -183 -218 -183c-66 0 -108 36 -108 89c0 89 113 183 218 183z" fill="currentColor"/>
</g>
</a>
<a style="color:inherit;" xlink:href="textedit:///work/_1/m001_008.ly:7:84:85">
<g transform="translate(121.8859, 9.8845)">
<text font-family="serif" font-style="italic" font-size="1.3862" text-anchor="start" fill="currentColor">
<tspan>m</tspan>
</text>
</g>
</a>
<g transform="translate(44.1920, 11.0150)">
<rect x="-0.0650" y="-1.3139" width="0.1300" height="3.1253" ry="0.0400" fill="currentColor"/>
</g>
<a style="color:inherit;" xlink:href="textedit:///work/_1/m001_008.ly:5:10:11">
<g transform="translate(44.3864, 8.4650)">
<path transform="scale(0.0022, -0.0022)" d="M261 266c0 -54 85 -40 85 -125c0 -94 -83 -141 -186 -141c-84 0 -160 54 -160 133c0 32 26 58 58 58s58 -26 58 -58c0 -22 -36 -26 -36 -48c0 -33 42 -42 80 -42c41 0 56 50 56 98v21c0 44 -2 77 -43 77h-65c-18 0 -27 14 -27 27s9 27 27 27h65c42 0 43 36 43 83v11
c0 43 -20 70 -61 70c-34 0 -71 -8 -71 -38c0 -19 32 -23 32 -42c0 -28 -23 -51 -51 -51s-51 23 -51 51c0 72 66 123 141 123c93 0 174 -31 174 -113c0 -94 -68 -67 -68 -121z" fill="currentColor"/>
</g>
</a>
<a style="color:inherit;" xlink:href="textedit:///work/_1/m001_008.ly:5:4:5">
<g transform="translate(44.1270, 9.5150)">
<path transform="scale(0.0040, -0.0040)" d="M218 136c66 0 108 -36 108 -89c0 -89 -113 -183 -218 -183c-66 0 -108 36 -108 89c0 89 113 183 218 183z" fill="currentColor"/>
</g>
</a>
<a style="color:inherit;" xlink:href="textedit:///work/_1/m001_008.ly:4:155:156">
<g transform="translate(41.1619, 7.8845)">
<text font-family="serif" font-style="italic" font-size="1.3862" text-anchor="start" fill="currentColor">
<tspan>m</tspan>
</text>
</g>
</a>
<a style="color:inherit;" xlink:href="textedit:///work/_1/m001_008.ly:5:14:15">
<g transform="translate(45.9312, 10.0250)">
<text font-family="serif" font-style="italic" font-size="1.3862" text-anchor="start" fill="currentColor">
<tspan>i</tspan>
</text>
</g>
</a>
<g transform="translate(39.4227, 11.0150)">
<rect x="-0.0650" y="-3.3139" width="0.1300" height="3.3139" ry="0.0400" fill="currentColor"/>
</g>
<a style="color:inherit;" xlink:href="textedit:///work/_1/m001_008.ly:4:151:152">
<g transform="translate(39.6001, 6.4700)">
<path transform="scale(0.0022, -0.0022)" d="M194 486c16 0 29 15 41 15c13 0 24 -13 24 -31v-341c0 -47 35 -86 81 -86c14 0 21 -10 21 -21s-7 -22 -21 -22c-49 0 -97 14 -146 14s-96 -14 -145 -14c-14 0 -22 11 -22 22s8 21 22 21c46 0 80 39 80 86v137c0 23 -16 35 -30 35c-7 0 -13 -4 -17 -11l-34 -65
c-5 -10 -14 -15 -23 -15c-14 0 -28 12 -28 27c0 4 1 8 3 13l129 250c2 4 7 6 11 6c18 0 37 -20 54 -20z" fill="currentColor"/>
</g>
</a>
<a style="color:inherit;" xlink:href="textedit:///work/_1/m001_008.ly:4:146:147">
<g transform="translate(39.3577, 7.5150)">
<path transform="scale(0.0040, -0.0040)" d="M218 136c66 0 108 -36 108 -89c0 -89 -113 -183 -218 -183c-66 0 -108 36 -108 89c0 89 113 183 218 183z" fill="currentColor"/>
</g>
</a>
<a style="color:inherit;" xlink:href="textedit:///work/_1/m001_008.ly:4:119:120">
<g transform="translate(37.2077, 9.0250)">
<text font-family="serif" font-style="italic" font-size="1.3862" text-anchor="start" fill="currentColor">
<tspan>i</tspan>
</text>
</g>
</a>
<g transform="translate(35.4685, 11.0150)">
<rect x="-0.0650" y="-2.3139" width="0.1300" height="2.3139" ry="0.0400" fill="currentColor"/>
</g>
<a style="color:inherit;" xlink:href="textedit:///work/_1/m001_008.ly:4:115:116">
<g transform="translate(35.6629, 7.4700)">
<path transform="scale(0.0022, -0.0022)" d="M261 266c0 -54 85 -40 85 -125c0 -94 -83 -141 -186 -141c-84 0 -160 54 -160 133c0 32 26 58 58 58s58 -26 58 -58c0 -22 -36 -26 -36 -48c0 -33 42 -42 80 -42c41 0 56 50 56 98v21c0 44 -2 77 -43 77h-65c-18 0 -27 14 -27 27s9 27 27 27h65c42 0 43 36 43 83v11
c0 43 -20 70 -61 70c-34 0 -71 -8 -71 -38c0 -19 32 -23 32 -42c0 -28 -23 -51 -51 -51s-51 23 -51 51c0 72 66 123 141 123c93 0 174 -31 174 -113c0 -94 -68 -67 -68 -121z" fill="currentColor"/>
</g>
</a>
<a style="color:inherit;" xlink:href="textedit:///work/_1/m001_008.ly:4:110:111">
<g transform="translate(35.4035, 8.5150)">
<path transform="scale(0.0040, -0.0040)" d="M218 136c66 0 108 -36 108 -89c0 -89 -113 -183 -218 -183c-66 0 -108 36 -108 89c0 89 113 183 218 183z" fill="currentColor"/>
</g>
</a>
<a style="color:inherit;" xlink:href="textedit:///work/_1/m001_008.ly:5:37:38">
<g transform="translate(51.8809, 10.0250)">
<text font-family="serif" font-style="italic" font-size="1.3862" text-anchor="start" fill="currentColor">
<tspan>i</tspan>
</text>
</g>
</a>
<g transform="translate(50.1417, 11.0150)">
<rect x="-0.0650" y="-1.3139" width="0.1300" height="3.2563" ry="0.0400" fill="currentColor"/>
</g>
<a style="color:inherit;" xlink:href="textedit:///work/_1/m001_008.ly:5:33:34">
<g transform="translate(50.3362, 8.4650)">
<path transform="scale(0.0022, -0.0022)" d="M261 266c0 -54 85 -40 85 -125c0 -94 -83 -141 -186 -141c-84 0 -160 54 -160 133c0 32 26 58 58 58s58 -26 58 -58c0 -22 -36 -26 -36 -48c0 -33 42 -42 80 -42c41 0 56 50 56 98v21c0 44 -2 77 -43 77h-65c-18 0 -27 14 -27 27s9 27 27 27h65c42 0 43 36 43 83v11
c0 43 -20 70 -61 70c-34 0 -71 -8 -71 -38c0 -19 32 -23 32 -42c0 -28 -23 -51 -51 -51s-51 23 -51 51c0 72 66 123 141 123c93 0 174 -31 174 -113c0 -94 -68 -67 -68 -121z" fill="currentColor"/>
</g>
</a>
<a style="color:inherit;" xlink:href="textedit:///work/_1/m001_008.ly:5:28:29">
<g transform="translate(50.0767, 9.5150)">
<path transform="scale(0.0040, -0.0040)" d="M218 136c66 0 108 -36 108 -89c0 -89 -113 -183 -218 -183c-66 0 -108 36 -108 89c0 89 113 183 218 183z" fill="currentColor"/>
</g>
</a>
<a style="color:inherit;" xlink:href="textedit:///work/_1/m001_008.ly:5:25:26">
<g transform="translate(48.4793, 9.3845)">
<text font-family="serif" font-style="italic" font-size="1.3862" text-anchor="start" fill="currentColor">
<tspan>m</tspan>
</text>
</g>
</a>
<g transform="translate(46.7401, 11.0150)">
<rect x="-0.0650" y="-1.8139" width="0.1300" height="3.6814" ry="0.0400" fill="currentColor"/>
</g>
<a style="color:inherit;" xlink:href="textedit:///work/_1/m001_008.ly:5:21:22">
<g transform="translate(46.9174, 7.9700)">
<path transform="scale(0.0022, -0.0022)" d="M194 486c16 0 29 15 41 15c13 0 24 -13 24 -31v-341c0 -47 35 -86 81 -86c14 0 21 -10 21 -21s-7 -22 -21 -22c-49 0 -97 14 -146 14s-96 -14 -145 -14c-14 0 -22 11 -22 22s8 21 22 21c46 0 80 39 80 86v137c0 23 -16 35 -30 35c-7 0 -13 -4 -17 -11l-34 -65
c-5 -10 -14 -15 -23 -15c-14 0 -28 12 -28 27c0 4 1 8 3 13l129 250c2 4 7 6 11 6c18 0 37 -20 54 -20z" fill="currentColor"/>
</g>
</a>
<a style="color:inherit;" xlink:href="textedit:///work/_1/m001_008.ly:5:17:18">
<g transform="translate(46.6751, 9.0150)">
<path transform="scale(0.0040, -0.0040)" d="M218 136c66 0 108 -36 108 -89c0 -89 -113 -183 -218 -183c-66 0 -108 36 -108 89c0 89 113 183 218 183z" fill="currentColor"/>
</g>
</a>
<a style="color:inherit;" xlink:href="textedit:///work/_1/m001_008.ly:4:37:38">
<g transform="translate(24.3495, 6.5250)">
<text font-family="serif" font-style="italic" font-size="1.3862" text-anchor="start" fill="currentColor">
<tspan>i</tspan>
</text>
</g>
</a>
<g transform="translate(22.6103, 11.0150)">
<rect x="-0.0650" y="-4.8139" width="0.1300" height="4.6285" ry="0.0400" fill="currentColor"/>
</g>
<a style="color:inherit;" xlink:href="textedit:///work/_1/m001_008.ly:4:33:34">
<g transform="translate(22.8048, 4.9700)">
<path transform="scale(0.0022, -0.0022)" d="M261 266c0 -54 85 -40 85 -125c0 -94 -83 -141 -186 -141c-84 0 -160 54 -160 133c0 32 26 58 58 58s58 -26 58 -58c0 -22 -36 -26 -36 -48c0 -33 42 -42 80 -42c41 0 56 50 56 98v21c0 44 -2 77 -43 77h-65c-18 0 -27 14 -27 27s9 27 27 27h65c42 0 43 36 43 83v11
c0 43 -20 70 -61 70c-34 0 -71 -8 -71 -38c0 -19 32 -23 32 -42c0 -28 -23 -51 -51 -51s-51 23 -51 51c0 72 66 123 141 123c93 0 174 -31 174 -113c0 -94 -68 -67 -68 -121z" fill="currentColor"/>
</g>
</a>
<a style="color:inherit;" xlink:href="textedit:///work/_1/m001_008.ly:4:28:29">
<g transform="translate(22.5453, 6.0150)">
<path transform="scale(0.0040, -0.0040)" d="M218 136c66 0 108 -36 108 -89c0 -89 -113 -183 -218 -183c-66 0 -108 36 -108 89c0 89 113 183 218 183z" fill="currentColor"/>
</g>
</a>
<a style="color:inherit;" xlink:href="textedit:///work/_1/m001_008.ly:4:51:52">
<g transform="translate(25.0934, 6.5150)">
<path transform="scale(0.0040, -0.0040)" d="M218 136c66 0 108 -36 108 -89c0 -89 -113 -183 -218 -183c-66 0 -108 36 -108 89c0 89 113 183 218 183z" fill="currentColor"/>
</g>
</a>
<a style="color:inherit;" xlink:href="textedit:///work/pages/qwe.ly:30:4:5">
<g transform="translate(15.6772, 11.0150)">
<path transform="scale(0.0040, -0.0040)" d="M263 265c0 -33 70 -23 70 -125c0 -92 -79 -140 -179 -140c-79 0 -154 42 -154 113c0 36 30 66 66 66s65 -30 65 -66c0 -25 -40 -28 -40 -53c0 -27 32 -37 63 -37c49 0 63 61 63 117v16c0 54 -2 94 -50 94h-80c-10 0 -14 8 -14 15s4 14 14 14h80c49 0 50 43 50 99v8
c0 54 -18 91 -67 91c-28 0 -57 -9 -57 -33c0 -22 35 -25 35 -47c0 -32 -25 -58 -57 -58s-58 26 -58 58c0 64 67 103 137 103c91 0 169 -33 169 -114c0 -122 -56 -80 -56 -121z" fill="currentColor"/>
</g>
<g transform="translate(15.5406, 13.0311)">
<path transform="scale(0.0040, -0.0040)" d="M196 117h117c0 -48 27 -94 72 -94c8 0 12 -5 12 -11s-4 -12 -12 -12c-44 0 -87 13 -131 13s-87 -13 -131 -13c-8 0 -12 6 -12 12s4 11 12 11c45 0 73 46 73 94zM-2 148c0 12 140 143 140 336c0 10 7 19 16 16c23 -7 47 -13 71 -13s48 6 71 13c14 4 23 -9 17 -16
l-284 -330h167v131c0 34 34 27 68 72c22 30 23 56 36 56c6 0 13 -5 13 -14v-245h72c10 0 15 -7 15 -14s-5 -15 -15 -15h-72v-8h-117v8h-167c-23 0 -31 14 -31 23z" fill="currentColor"/>
</g>
</a>
<a style="color:inherit;" xlink:href="textedit:///work/pages/qwe.ly:29:4:5">
<g transform="translate(9.9906, 9.0150)">
<path transform="scale(0.0040, -0.0040)" d="M0 119c0 8 5 15 13 18l46 17v158c0 10 8 19 18 19s19 -9 19 -19v-145l83 31v158c0 10 9 19 19 19s18 -9 18 -19v-145l32 12c2 1 5 1 7 1c11 0 20 -9 20 -20v-60c0 -8 -5 -16 -13 -19l-46 -16v-160l32 11c2 1 5 1 7 1c11 0 20 -9 20 -20v-60c0 -8 -5 -15 -13 -18l-46 -17
v-158c0 -10 -8 -19 -18 -19s-19 9 -19 19v145l-83 -31v-158c0 -10 -9 -19 -19 -19s-18 9 -18 19v145l-32 -12c-2 -1 -5 -1 -7 -1c-11 0 -20 9 -20 20v60c0 8 5 16 13 19l46 16v160l-32 -11c-2 -1 -5 -1 -7 -1c-11 0 -20 9 -20 20v60zM179 95l-83 -30v-160l83 30v160z" fill="currentColor"/>
</g>
<g transform="translate(11.0906, 10.5150)">
<path transform="scale(0.0040, -0.0040)" d="M0 119c0 8 5 15 13 18l46 17v158c0 10 8 19 18 19s19 -9 19 -19v-145l83 31v158c0 10 9 19 19 19s18 -9 18 -19v-145l32 12c2 1 5 1 7 1c11 0 20 -9 20 -20v-60c0 -8 -5 -16 -13 -19l-46 -16v-160l32 11c2 1 5 1 7 1c11 0 20 -9 20 -20v-60c0 -8 -5 -15 -13 -18l-46 -17
v-158c0 -10 -8 -19 -18 -19s-19 9 -19 19v145l-83 -31v-158c0 -10 -9 -19 -19 -19s-18 9 -18 19v145l-32 -12c-2 -1 -5 -1 -7 -1c-11 0 -20 9 -20 20v60c0 8 5 16 13 19l46 16v160l-32 -11c-2 -1 -5 -1 -7 -1c-11 0 -20 9 -20 20v60zM179 95l-83 -30v-160l83 30v160z" fill="currentColor"/>
</g>
<g transform="translate(12.1906, 8.5150)">
<path transform="scale(0.0040, -0.0040)" d="M0 119c0 8 5 15 13 18l46 17v158c0 10 8 19 18 19s19 -9 19 -19v-145l83 31v158c0 10 9 19 19 19s18 -9 18 -19v-145l32 12c2 1 5 1 7 1c11 0 20 -9 20 -20v-60c0 -8 -5 -16 -13 -19l-46 -16v-160l32 11c2 1 5 1 7 1c11 0 20 -9 20 -20v-60c0 -8 -5 -15 -13 -18l-46 -17
v-158c0 -10 -8 -19 -18 -19s-19 9 -19 19v145l-83 -31v-158c0 -10 -9 -19 -19 -19s-18 9 -18 19v145l-32 -12c-2 -1 -5 -1 -7 -1c-11 0 -20 9 -20 20v60c0 8 5 16 13 19l46 16v160l-32 -11c-2 -1 -5 -1 -7 -1c-11 0 -20 9 -20 20v60zM179 95l-83 -30v-160l83 30v160z" fill="currentColor"/>
</g>
<g transform="translate(13.2906, 10.0150)">
<path transform="scale(0.0040, -0.0040)" d="M0 119c0 8 5 15 13 18l46 17v158c0 10 8 19 18 19s19 -9 19 -19v-145l83 31v158c0 10 9 19 19 19s18 -9 18 -19v-145l32 12c2 1 5 1 7 1c11 0 20 -9 20 -20v-60c0 -8 -5 -16 -13 -19l-46 -16v-160l32 11c2 1 5 1 7 1c11 0 20 -9 20 -20v-60c0 -8 -5 -15 -13 -18l-46 -17
v-158c0 -10 -8 -19 -18 -19s-19 9 -19 19v145l-83 -31v-158c0 -10 -9 -19 -19 -19s-18 9 -18 19v145l-32 -12c-2 -1 -5 -1 -7 -1c-11 0 -20 9 -20 20v60c0 8 5 16 13 19l46 16v160l-32 -11c-2 -1 -5 -1 -7 -1c-11 0 -20 9 -20 20v60zM179 95l-83 -30v-160l83 30v160z" fill="currentColor"/>
</g>
</a>
<g transform="translate(7.0727, 15.5746)">
<text font-family="serif" font-style="italic" font-size="1.3862" text-anchor="start" fill="currentColor">
<tspan>8</tspan>
</text>
</g>
<g transform="translate(6.4906, 12.0150)">
<path transform="scale(0.0040, -0.0040)" d="M266 -635h-6c-108 0 -195 88 -195 197c0 58 53 103 112 103c54 0 95 -47 95 -103c0 -52 -43 -95 -95 -95c-11 0 -21 2 -31 6c26 -39 68 -65 117 -65h4zM461 -203c68 24 113 90 113 164c0 90 -66 179 -173 190c19 -89 48 -242 60 -354zM74 28c0 -145 141 -247 264 -247
c1 0 47 0 82 6c-7 64 -29 203 -63 364c-79 -8 -124 -61 -124 -119c0 -44 25 -91 81 -123c5 -5 7 -10 7 -15c0 -11 -10 -22 -22 -22c-15 0 -126 62 -126 187c0 88 58 174 160 197c-14 58 -29 117 -46 175c-107 -121 -213 -243 -213 -403zM250 553c-29 96 -52 170 -52 346
c0 115 55 224 149 292c6 5 14 5 20 0c68 -80 133 -245 133 -358c0 -143 -86 -255 -180 -364c21 -68 39 -138 56 -207c2 0 7 1 13 1c155 0 256 -128 256 -261c0 -113 -74 -212 -180 -246c3 -35 5 -70 5 -105c0 -19 -1 -39 -2 -58c-7 -119 -88 -225 -202 -228l1 43
c93 2 153 92 159 191c1 18 2 37 2 55c0 31 -1 61 -4 92c-5 -1 -44 -8 -89 -8c-193 0 -333 180 -333 374c0 177 131 306 248 441zM428 916c0 34 1 66 -20 129c-99 -48 -162 -149 -162 -259c0 -52 12 -115 36 -194c80 97 146 198 146 324z" fill="currentColor"/>
</g>
<a style="color:inherit;" xlink:href="textedit:///work/_1/m001_008.ly:4:4:5">
<g transform="translate(19.1453, 11.0150)">
<path transform="scale(0.0040, -0.0040)" d="M70 205c79 0 46 -98 91 -98c16 0 54 48 61 63c6 12 23 12 28 0l-123 -420c-8 -7 -17 -10 -27 -10s-20 3 -28 10l117 326c-34 -12 -69 -22 -105 -22c-47 0 -87 34 -87 79c0 40 33 72 73 72z" fill="currentColor"/>
</g>
</a>
<a style="color:inherit;" xlink:href="textedit:///work/_1/m001_008.ly:4:95:96">
<g transform="translate(33.7535, 7.8845)">
<text font-family="serif" font-style="italic" font-size="1.3862" text-anchor="start" fill="currentColor">
<tspan>m</tspan>
</text>
</g>
</a>
<g transform="translate(32.0143, 11.0150)">
<rect x="-0.0650" y="-3.3139" width="0.1300" height="3.3139" ry="0.0400" fill="currentColor"/>
</g>
<a style="color:inherit;" xlink:href="textedit:///work/_1/m001_008.ly:4:91:92">
<g transform="translate(32.2087, 6.4700)">
<path transform="scale(0.0022, -0.0022)" d="M261 266c0 -54 85 -40 85 -125c0 -94 -83 -141 -186 -141c-84 0 -160 54 -160 133c0 32 26 58 58 58s58 -26 58 -58c0 -22 -36 -26 -36 -48c0 -33 42 -42 80 -42c41 0 56 50 56 98v21c0 44 -2 77 -43 77h-65c-18 0 -27 14 -27 27s9 27 27 27h65c42 0 43 36 43 83v11
c0 43 -20 70 -61 70c-34 0 -71 -8 -71 -38c0 -19 32 -23 32 -42c0 -28 -23 -51 -51 -51s-51 23 -51 51c0 72 66 123 141 123c93 0 174 -31 174 -113c0 -94 -68 -67 -68 -121z" fill="currentColor"/>
</g>
</a>
<a style="color:inherit;" xlink:href="textedit:///work/_1/m001_008.ly:4:87:88">
<g transform="translate(31.9493, 7.5150)">
<path transform="scale(0.0040, -0.0040)" d="M218 136c66 0 108 -36 108 -89c0 -89 -113 -183 -218 -183c-66 0 -108 36 -108 89c0 89 113 183 218 183z" fill="currentColor"/>
</g>
</a>
<a style="color:inherit;" xlink:href="textedit:///work/_1/m001_008.ly:4:73:74">
<g transform="translate(30.2993, 6.5250)">
<text font-family="serif" font-style="italic" font-size="1.3862" text-anchor="start" fill="currentColor">
<tspan>i</tspan>
</text>
</g>
</a>
<a style="color:inherit;" xlink:href="textedit:///work/_1/m001_008.ly:6:60:61">
<g transform="translate(81.1206, 11.3751)">
<text font-family="serif" font-style="italic" font-size="1.3862" text-anchor="start" fill="currentColor">
<tspan>a</tspan>
</text>
</g>
</a>
<g transform="translate(28.5601, 11.0150)">
<rect x="-0.0650" y="-4.8139" width="0.1300" height="4.8139" ry="0.0400" fill="currentColor"/>
</g>
<a style="color:inherit;" xlink:href="textedit:///work/_1/m001_008.ly:4:69:70">
<g transform="translate(28.6862, 4.9700)">
<path transform="scale(0.0022, -0.0022)" d="M148 501c10 0 41 -15 72 -15c32 0 63 15 76 15c15 0 26 -11 26 -21c0 -4 -1 -7 -4 -10l-264 -291h134v4c0 60 50 41 75 85c7 11 8 24 14 36c3 7 10 10 17 10c11 0 24 -8 24 -25v-110h70c18 0 27 -14 27 -27s-9 -27 -27 -27h-70c2 -45 36 -82 80 -82c14 0 22 -10 22 -21
s-8 -22 -22 -22c-49 0 -96 14 -145 14s-97 -14 -146 -14c-14 0 -21 11 -21 22s7 21 21 21c44 0 79 37 81 82h-134c-43 0 -57 25 -57 42c0 5 1 10 3 12c73 81 123 182 123 291c0 17 11 31 25 31z" fill="currentColor"/>
</g>
</a>
<a style="color:inherit;" xlink:href="textedit:///work/_1/m001_008.ly:4:63:64">
<g transform="translate(28.4951, 6.0150)">
<path transform="scale(0.0040, -0.0040)" d="M218 136c66 0 108 -36 108 -89c0 -89 -113 -183 -218 -183c-66 0 -108 36 -108 89c0 89 113 183 218 183z" fill="currentColor"/>
</g>
</a>
<a style="color:inherit;" xlink:href="textedit:///work/_1/m001_008.ly:4:60:61">
<g transform="translate(26.8976, 6.8845)">
<text font-family="serif" font-style="italic" font-size="1.3862" text-anchor="start" fill="currentColor">
<tspan>m</tspan>
</text>
</g>
</a>
<g transform="translate(25.1584, 11.0150)">
<rect x="-0.0650" y="-4.3139" width="0.1300" height="4.3093" ry="0.0400" fill="currentColor"/>
</g>
<a style="color:inherit;" xlink:href="textedit:///work/_1/m001_008.ly:4:56:57">
<g transform="translate(25.3187, 5.4700)">
<path transform="scale(0.0022, -0.0022)" d="M94 66c-60 0 -39 -66 -72 -66c-11 0 -22 7 -22 21c0 154 232 162 232 334c0 50 -17 102 -61 102c-33 0 -66 -14 -66 -44c0 -24 31 -37 31 -61c0 -34 -27 -61 -61 -61s-61 27 -61 61c0 84 72 148 157 148c98 0 190 -55 190 -145c0 -140 -131 -154 -225 -205
c85 -2 113 -61 165 -61c45 0 28 41 57 41c11 0 22 -8 22 -21c0 -29 -48 -109 -144 -109c-92 0 -96 66 -142 66z" fill="currentColor"/>
</g>
</a>
<a style="color:inherit;" xlink:href="textedit:///work/_1/m001_008.ly:6:14:15">
<g transform="translate(73.3579, 13.2404)">
<text font-family="serif" font-style="italic" font-size="1.3862" text-anchor="start" fill="currentColor">
<tspan>p</tspan>
</text>
</g>
</a>
<g transform="translate(72.7929, 11.0150)">
<rect x="-0.0650" y="-3.0000" width="0.1300" height="4.8139" ry="0.0400" fill="currentColor"/>
</g>
<a style="color:inherit;" xlink:href="textedit:///work/_1/m001_008.ly:6:10:11">
<g transform="translate(71.7449, 7.2750)">
<path transform="scale(0.0022, -0.0022)" d="M148 501c10 0 41 -15 72 -15c32 0 63 15 76 15c15 0 26 -11 26 -21c0 -4 -1 -7 -4 -10l-264 -291h134v4c0 60 50 41 75 85c7 11 8 24 14 36c3 7 10 10 17 10c11 0 24 -8 24 -25v-110h70c18 0 27 -14 27 -27s-9 -27 -27 -27h-70c2 -45 36 -82 80 -82c14 0 22 -10 22 -21
s-8 -22 -22 -22c-49 0 -96 14 -145 14s-97 -14 -146 -14c-14 0 -21 11 -21 22s7 21 21 21c44 0 79 37 81 82h-134c-43 0 -57 25 -57 42c0 5 1 10 3 12c73 81 123 182 123 291c0 17 11 31 25 31z" fill="currentColor"/>
</g>
</a>
<a style="color:inherit;" xlink:href="textedit:///work/_1/m001_008.ly:6:4:5">
<g transform="translate(71.5537, 13.0150)">
<path transform="scale(0.0040, -0.0040)" d="M218 136c66 0 108 -36 108 -89c0 -89 -113 -183 -218 -183c-66 0 -108 36 -108 89c0 89 113 183 218 183z" fill="currentColor"/>
</g>
</a>
<a style="color:inherit;" xlink:href="textedit:///work/_1/m001_008.ly:5:155:156">
<g transform="translate(68.6933, 11.3845)">
<text font-family="serif" font-style="italic" font-size="1.3862" text-anchor="start" fill="currentColor">
<tspan>m</tspan>
</text>
</g>
</a>
<g transform="translate(66.9541, 11.0150)">
<rect x="-0.0650" y="0.1861" width="0.1300" height="3.3098" ry="0.0400" fill="currentColor"/>
</g>
<a style="color:inherit;" xlink:href="textedit:///work/_1/m001_008.ly:5:151:152">
<g transform="translate(67.1315, 8.4650)">
<path transform="scale(0.0022, -0.0022)" d="M194 486c16 0 29 15 41 15c13 0 24 -13 24 -31v-341c0 -47 35 -86 81 -86c14 0 21 -10 21 -21s-7 -22 -21 -22c-49 0 -97 14 -146 14s-96 -14 -145 -14c-14 0 -22 11 -22 22s8 21 22 21c46 0 80 39 80 86v137c0 23 -16 35 -30 35c-7 0 -13 -4 -17 -11l-34 -65
c-5 -10 -14 -15 -23 -15c-14 0 -28 12 -28 27c0 4 1 8 3 13l129 250c2 4 7 6 11 6c18 0 37 -20 54 -20z" fill="currentColor"/>
</g>
</a>
<a style="color:inherit;" xlink:href="textedit:///work/_1/m001_008.ly:5:146:147">
<g transform="translate(66.8891, 11.0150)">
<path transform="scale(0.0040, -0.0040)" d="M218 136c66 0 108 -36 108 -89c0 -89 -113 -183 -218 -183c-66 0 -108 36 -108 89c0 89 113 183 218 183z" fill="currentColor"/>
</g>
</a>
<g transform="translate(77.8014, 11.0150)">
<rect x="-0.0650" y="-3.0000" width="0.1300" height="4.3139" ry="0.0400" fill="currentColor"/>
</g>
<g transform="translate(80.5556, 11.0150)">
<rect x="-0.0650" y="-3.0000" width="0.1300" height="2.8139" ry="0.0400" fill="currentColor"/>
</g>
<a style="color:inherit;" xlink:href="textedit:///work/_1/m001_008.ly:6:56:57">
<g transform="translate(79.5588, 7.2750)">
<path transform="scale(0.0022, -0.0022)" d="M194 486c16 0 29 15 41 15c13 0 24 -13 24 -31v-341c0 -47 35 -86 81 -86c14 0 21 -10 21 -21s-7 -22 -21 -22c-49 0 -97 14 -146 14s-96 -14 -145 -14c-14 0 -22 11 -22 22s8 21 22 21c46 0 80 39 80 86v137c0 23 -16 35 -30 35c-7 0 -13 -4 -17 -11l-34 -65
c-5 -10 -14 -15 -23 -15c-14 0 -28 12 -28 27c0 4 1 8 3 13l129 250c2 4 7 6 11 6c18 0 37 -20 54 -20z" fill="currentColor"/>
</g>
</a>
<a style="color:inherit;" xlink:href="textedit:///work/_1/m001_008.ly:6:51:52">
<g transform="translate(79.3164, 11.0150)">
<path transform="scale(0.0040, -0.0040)" d="M218 136c66 0 108 -36 108 -89c0 -89 -113 -183 -218 -183c-66 0 -108 36 -108 89c0 89 113 183 218 183z" fill="currentColor"/>
</g>
</a>
<a style="color:inherit;" xlink:href="textedit:///work/_1/m001_008.ly:6:37:38">
<g transform="translate(78.3664, 13.0250)">
<text font-family="serif" font-style="italic" font-size="1.3862" text-anchor="start" fill="currentColor">
<tspan>i</tspan>
</text>
</g>
</a>
<a style="color:inherit;" xlink:href="textedit:///work/_1/m001_008.ly:6:33:34">
<g transform="translate(76.8045, 7.2750)">
<path transform="scale(0.0022, -0.0022)" d="M194 486c16 0 29 15 41 15c13 0 24 -13 24 -31v-341c0 -47 35 -86 81 -86c14 0 21 -10 21 -21s-7 -22 -21 -22c-49 0 -97 14 -146 14s-96 -14 -145 -14c-14 0 -22 11 -22 22s8 21 22 21c46 0 80 39 80 86v137c0 23 -16 35 -30 35c-7 0 -13 -4 -17 -11l-34 -65
c-5 -10 -14 -15 -23 -15c-14 0 -28 12 -28 27c0 4 1 8 3 13l129 250c2 4 7 6 11 6c18 0 37 -20 54 -20z" fill="currentColor"/>
</g>
</a>
<a style="color:inherit;" xlink:href="textedit:///work/_1/m001_008.ly:6:28:29">
<g transform="translate(76.5622, 12.5150)">
<path transform="scale(0.0040, -0.0040)" d="M218 136c66 0 108 -36 108 -89c0 -89 -113 -183 -218 -183c-66 0 -108 36 -108 89c0 89 113 183 218 183z" fill="currentColor"/>
</g>
</a>
<a style="color:inherit;" xlink:href="textedit:///work/_1/m001_008.ly:6:25:26">
<g transform="translate(76.1122, 11.3845)">
<text font-family="serif" font-style="italic" font-size="1.3862" text-anchor="start" fill="currentColor">
<tspan>m</tspan>
</text>
</g>
</a>
<g transform="translate(75.5472, 11.0150)">
<rect x="-0.0650" y="-3.0000" width="0.1300" height="2.8139" ry="0.0400" fill="currentColor"/>
</g>
<a style="color:inherit;" xlink:href="textedit:///work/_1/m001_008.ly:6:21:22">
<g transform="translate(74.5503, 7.2750)">
<path transform="scale(0.0022, -0.0022)" d="M194 486c16 0 29 15 41 15c13 0 24 -13 24 -31v-341c0 -47 35 -86 81 -86c14 0 21 -10 21 -21s-7 -22 -21 -22c-49 0 -97 14 -146 14s-96 -14 -145 -14c-14 0 -22 11 -22 22s8 21 22 21c46 0 80 39 80 86v137c0 23 -16 35 -30 35c-7 0 -13 -4 -17 -11l-34 -65
c-5 -10 -14 -15 -23 -15c-14 0 -28 12 -28 27c0 4 1 8 3 13l129 250c2 4 7 6 11 6c18 0 37 -20 54 -20z" fill="currentColor"/>
</g>
</a>
<a style="color:inherit;" xlink:href="textedit:///work/_1/m001_008.ly:6:17:18">
<g transform="translate(74.3079, 11.0150)">
<path transform="scale(0.0040, -0.0040)" d="M218 136c66 0 108 -36 108 -89c0 -89 -113 -183 -218 -183c-66 0 -108 36 -108 89c0 89 113 183 218 183z" fill="currentColor"/>
</g>
</a>
<a style="color:inherit;" xlink:href="textedit:///work/_1/m001_008.ly:5:95:96">
<g transform="translate(61.2849, 11.3845)">
<text font-family="serif" font-style="italic" font-size="1.3862" text-anchor="start" fill="currentColor">
<tspan>m</tspan>
</text>
</g>
</a>
<g transform="translate(59.5457, 11.0150)">
<rect x="-0.0650" y="0.1861" width="0.1300" height="2.8448" ry="0.0400" fill="currentColor"/>
</g>
<a style="color:inherit;" xlink:href="textedit:///work/_1/m001_008.ly:5:91:92">
<g transform="translate(59.7401, 8.4650)">
<path transform="scale(0.0022, -0.0022)" d="M261 266c0 -54 85 -40 85 -125c0 -94 -83 -141 -186 -141c-84 0 -160 54 -160 133c0 32 26 58 58 58s58 -26 58 -58c0 -22 -36 -26 -36 -48c0 -33 42 -42 80 -42c41 0 56 50 56 98v21c0 44 -2 77 -43 77h-65c-18 0 -27 14 -27 27s9 27 27 27h65c42 0 43 36 43 83v11
c0 43 -20 70 -61 70c-34 0 -71 -8 -71 -38c0 -19 32 -23 32 -42c0 -28 -23 -51 -51 -51s-51 23 -51 51c0 72 66 123 141 123c93 0 174 -31 174 -113c0 -94 -68 -67 -68 -121z" fill="currentColor"/>
</g>
</a>
<a style="color:inherit;" xlink:href="textedit:///work/_1/m001_008.ly:5:87:88">
<g transform="translate(59.4807, 11.0150)">
<path transform="scale(0.0040, -0.0040)" d="M218 136c66 0 108 -36 108 -89c0 -89 -113 -183 -218 -183c-66 0 -108 36 -108 89c0 89 113 183 218 183z" fill="currentColor"/>
</g>
</a>
<a style="color:inherit;" xlink:href="textedit:///work/_1/m001_008.ly:5:60:61">
<g transform="translate(54.4290, 10.3845)">
<text font-family="serif" font-style="italic" font-size="1.3862" text-anchor="start" fill="currentColor">
<tspan>m</tspan>
</text>
</g>
</a>
<a style="color:inherit;" xlink:href="textedit:///work/_1/m001_008.ly:5:63:64">
<g transform="translate(56.0265, 9.5150)">
<path transform="scale(0.0040, -0.0040)" d="M218 136c66 0 108 -36 108 -89c0 -89 -113 -183 -218 -183c-66 0 -108 36 -108 89c0 89 113 183 218 183z" fill="currentColor"/>
</g>
</a>
<a style="color:inherit;" xlink:href="textedit:///work/_1/m001_008.ly:5:73:74">
<g transform="translate(57.8307, 10.0250)">
<text font-family="serif" font-style="italic" font-size="1.3862" text-anchor="start" fill="currentColor">
<tspan>i</tspan>
</text>
</g>
</a>
<a style="color:inherit;" xlink:href="textedit:///work/_1/m001_008.ly:5:69:70">
<g transform="translate(56.2176, 8.4650)">
<path transform="scale(0.0022, -0.0022)" d="M148 501c10 0 41 -15 72 -15c32 0 63 15 76 15c15 0 26 -11 26 -21c0 -4 -1 -7 -4 -10l-264 -291h134v4c0 60 50 41 75 85c7 11 8 24 14 36c3 7 10 10 17 10c11 0 24 -8 24 -25v-110h70c18 0 27 -14 27 -27s-9 -27 -27 -27h-70c2 -45 36 -82 80 -82c14 0 22 -10 22 -21
s-8 -22 -22 -22c-49 0 -96 14 -145 14s-97 -14 -146 -14c-14 0 -21 11 -21 22s7 21 21 21c44 0 79 37 81 82h-134c-43 0 -57 25 -57 42c0 5 1 10 3 12c73 81 123 182 123 291c0 17 11 31 25 31z" fill="currentColor"/>
</g>
</a>
<g transform="translate(56.0915, 11.0150)">
<rect x="-0.0650" y="-1.3139" width="0.1300" height="4.1280" ry="0.0400" fill="currentColor"/>
</g>
<a style="color:inherit;" xlink:href="textedit:///work/_1/m001_008.ly:5:110:111">
<g transform="translate(62.9349, 12.0150)">
<path transform="scale(0.0040, -0.0040)" d="M218 136c66 0 108 -36 108 -89c0 -89 -113 -183 -218 -183c-66 0 -108 36 -108 89c0 89 113 183 218 183z" fill="currentColor"/>
</g>
</a>
<a style="color:inherit;" xlink:href="textedit:///work/_1/m001_008.ly:5:51:52">
<g transform="translate(52.6248, 10.0150)">
<path transform="scale(0.0040, -0.0040)" d="M218 136c66 0 108 -36 108 -89c0 -89 -113 -183 -218 -183c-66 0 -108 36 -108 89c0 89 113 183 218 183z" fill="currentColor"/>
</g>
</a>
<a style="color:inherit;" xlink:href="textedit:///work/_1/m001_008.ly:5:119:120">
<g transform="translate(64.7391, 12.5250)">
<text font-family="serif" font-style="italic" font-size="1.3862" text-anchor="start" fill="currentColor">
<tspan>i</tspan>
</text>
</g>
</a>
<g transform="translate(62.9999, 11.0150)">
<rect x="-0.0650" y="1.1861" width="0.1300" height="2.0616" ry="0.0400" fill="currentColor"/>
</g>
<a style="color:inherit;" xlink:href="textedit:///work/_1/m001_008.ly:5:56:57">
<g transform="translate(52.8501, 8.4650)">
<path transform="scale(0.0022, -0.0022)" d="M94 66c-60 0 -39 -66 -72 -66c-11 0 -22 7 -22 21c0 154 232 162 232 334c0 50 -17 102 -61 102c-33 0 -66 -14 -66 -44c0 -24 31 -37 31 -61c0 -34 -27 -61 -61 -61s-61 27 -61 61c0 84 72 148 157 148c98 0 190 -55 190 -145c0 -140 -131 -154 -225 -205
c85 -2 113 -61 165 -61c45 0 28 41 57 41c11 0 22 -8 22 -21c0 -29 -48 -109 -144 -109c-92 0 -96 66 -142 66z" fill="currentColor"/>
</g>
</a>
<a style="color:inherit;" xlink:href="textedit:///work/_1/m001_008.ly:5:115:116">
<g transform="translate(63.1943, 8.4650)">
<path transform="scale(0.0022, -0.0022)" d="M261 266c0 -54 85 -40 85 -125c0 -94 -83 -141 -186 -141c-84 0 -160 54 -160 133c0 32 26 58 58 58s58 -26 58 -58c0 -22 -36 -26 -36 -48c0 -33 42 -42 80 -42c41 0 56 50 56 98v21c0 44 -2 77 -43 77h-65c-18 0 -27 14 -27 27s9 27 27 27h65c42 0 43 36 43 83v11
c0 43 -20 70 -61 70c-34 0 -71 -8 -71 -38c0 -19 32 -23 32 -42c0 -28 -23 -51 -51 -51s-51 23 -51 51c0 72 66 123 141 123c93 0 174 -31 174 -113c0 -94 -68 -67 -68 -121z" fill="currentColor"/>
</g>
</a>
<g transform="translate(52.6898, 11.0150)">
<rect x="-0.0650" y="-0.8139" width="0.1300" height="2.8125" ry="0.0400" fill="currentColor"/>
</g>
<g transform="translate(28.8852, 165.1063)">
<a xlink:href="https://lilypond.org/">
<rect x="0.0000" y="-0.4888" width="61.7311" height="2.1603" fill="none" stroke="none" stroke-width="0.0"/>
</a>
</g>
<g transform="translate(28.8852, 165.1063)">
<text font-family="serif" font-size="2.2000" text-anchor="start" fill="currentColor">
<tspan>Music engraving by LilyPond 2.24.4—www.lilypond.org</tspan>
</text>
</g>
</svg>
